# xmcd
#
# Track frame offsets:
#	183
#	11383
#	24730
#	36730
#	52143
#	65825
#	77988
#	90913
#	102295
#	112580
#	122578
#	132758
#	145120
#	155593
#	170233
#
# Disc length: 2395 seconds
#
# Revision: 3
# Processed by: cddbd v1.4PL0 Copyright (c) Steve Scherf et al.
# Submitted via: audiograbber 1.80
#
DISCID=cb09590f
DTITLE=Various Artist - All - Time Country Hits CD-2
DYEAR=1993
DGENRE=Country
TTITLE0=Don Gibson - Oh, lonesome me
TTITLE1=Lynn Anderson - Top of the world
TTITLE2=Jack Greene - There goes my everything
TTITLE3=Melba Montgomery - No charge
TTITLE4=Dickey Lee - 9,999,999 Tears
TTITLE5=Johnny Paycheck - Take this job and shove it
TTITLE6=Claude King - Wolverton mountain
TTITLE7=Wynn Stewart - It's such a pretty world today
TTITLE8=Warner Mack - The bridge washed out
TTITLE9=Hank Locklin - Please help mei'm falling
TTITLE10=Jimmie Rodgers - Oh-oh, i'm falling in love again
TTITLE11=Jeanne Pruett - Satin sheets
TTITLE12=George Hamilton IV - Abilene
TTITLE13=Loretta Lynn - Coal miner's daughter
TTITLE14=The Louvin Brothers - I don't believe you've met my
EXTD=
EXTT0=
EXTT1=
EXTT2=
EXTT3=
EXTT4=
EXTT5=
EXTT6=
EXTT7=
EXTT8=
EXTT9=
EXTT10=
EXTT11=
EXTT12=
EXTT13=
EXTT14=
PLAYORDER=
